<?xml version="1.0" encoding="UTF-8"?>
<svg xmlns="http://www.w3.org/2000/svg" version="1.1" width="32" height="32">
  <style>@media (prefers-color-scheme: dark) { :root { filter: invert(100%); } }</style>
  <circle cx="16" cy="16" r="16" fill="#fff"/>
  <g fill="#000" stroke="#000" aria-label="中村">
    <path d="m14.25 18.886h-1.3043v-1.1191h-4.0337v5.5554h-1.3043v-5.5554h-4.0417l-0.032205 1.1835h-1.3043v-7.3025h5.3782v-3.0192h1.3204l-0.032205 3.0192h5.3541zm-1.3043-2.3268v-3.7036h-4.0337v3.7036zm-5.338 0v-3.7036h-4.0739v3.7036z"/>
    <path d="m29.771 13.081h-2.1497v8.1962q0 2.0933-1.8276 2.0933h-1.6344l-0.42672-1.3848q1.3607 0.08856 1.7471 0.08856 0.89369 0 0.89369-0.6441v-8.3492h-4.3879v-1.1996h4.3879v-3.301h1.2479v3.301h2.1497zm-7.4394 4.4685-1.0869 0.74072q-0.54749-1.6908-1.6183-2.7294v7.858h-1.256v-6.908h-0.0161q-0.68436 1.6264-2.6006 3.5989l-0.942-0.82928q2.8904-3.0031 3.5265-6.1995h-2.7374v-1.1996h2.7696v-3.2044h1.256v3.2044h2.0128v1.1996h-2.0128v1.5539l0.3462-0.3462q1.4251 1.2721 2.359 3.2608zm3.1803 1.2399-1.1352 0.57969q-0.69241-2.7616-2.2785-4.3396l1.0547-0.6441q1.5861 1.4895 2.359 4.404z"/>
  </g>
</svg>
