<?xml version="1.0" encoding="UTF-8"?>
<svg xmlns="http://www.w3.org/2000/svg" version="1.1" width="32" height="32">
  <style>@media (prefers-color-scheme: dark) { :root { filter: invert(100%); } }</style>
  <circle cx="16" cy="16" r="16" fill="#fff"/>
  <g fill="#000" aria-label="DN">
    <path d="m8.5426 9.532q3.0427 0 4.872 1.3813 1.848 1.3627 1.848 5.0213 0 3.6027-1.792 5.0773-1.792 1.456-4.648 1.456h-3.8827v-12.936zm-0.54133 2.2213v8.4933h1.008q1.512 0 2.296-0.93334 0.784-0.952 0.784-3.3787 0-1.6613-0.392-2.576-0.392-0.91467-1.064-1.2507-0.672-0.35467-1.6613-0.35467z"/>
    <path d="m27.06 22.468h-3.9013l-3.7333-10.024q0.18667 1.4747 0.28 2.6133 0.112 1.12 0.112 2.6693v4.7413h-2.7253v-12.936h3.808l3.8267 10.043q-0.41067-2.5573-0.41067-4.816v-5.2267h2.744z"/>
  </g>
</svg>
