<?xml version="1.0" encoding="UTF-8"?>
<svg xmlns="http://www.w3.org/2000/svg" version="1.1" width="83" height="30">
  <rect x="1" y=".5" width="82" height="29" rx="4" fill="#f6c915"/>
  <svg x="7" y="7" width="16" height="16" version="1.1" viewBox="0 0 80 80">
    <g transform="translate(-78.37-208.06)" fill="#1a171b">
      <path d="m104.28 271.1c-3.571 0-6.373-.466-8.41-1.396-2.037-.93-3.495-2.199-4.375-3.809-.88-1.609-1.308-3.457-1.282-5.544.025-2.086.313-4.311.868-6.675l9.579-40.05 11.69-1.81-10.484 43.44c-.202.905-.314 1.735-.339 2.489-.026.754.113 1.421.415 1.999.302.579.817 1.044 1.546 1.395.729.353 1.747.579 3.055.679l-2.263 9.278"/>
      <path d="m146.52 246.14c0 3.671-.604 7.03-1.811 10.07-1.207 3.043-2.879 5.669-5.01 7.881-2.138 2.213-4.702 3.935-7.693 5.167-2.992 1.231-6.248 1.848-9.767 1.848-1.71 0-3.42-.151-5.129-.453l-3.394 13.651h-11.162l12.52-52.19c2.01-.603 4.311-1.143 6.901-1.622 2.589-.477 5.393-.716 8.41-.716 2.815 0 5.242.428 7.278 1.282 2.037.855 3.708 2.024 5.02 3.507 1.307 1.484 2.274 3.219 2.904 5.205.627 1.987.942 4.11.942 6.373m-27.378 15.461c.854.202 1.91.302 3.167.302 1.961 0 3.746-.364 5.355-1.094 1.609-.728 2.979-1.747 4.111-3.055 1.131-1.307 2.01-2.877 2.64-4.714.628-1.835.943-3.858.943-6.071 0-2.161-.479-3.998-1.433-5.506-.956-1.508-2.615-2.263-4.978-2.263-1.61 0-3.118.151-4.525.453l-5.28 21.948"/>
    </g>
  </svg>
  <g fill="#1a171b" aria-label="Donate">
    <path d="m29.049 18.152v-6.3h1.568q0.812 0 1.358 0.238 0.56 0.224 0.896 0.658t0.476 1.05q0.154 0.602 0.154 1.358 0 0.826-0.21 1.4t-0.56 0.938q-0.35 0.35-0.798 0.504t-0.924 0.154zm-2.198-8.148v9.996h4.312q1.148 0 1.988-0.378 0.854-0.392 1.414-1.064 0.574-0.672 0.854-1.596t0.28-2.016q0-1.246-0.35-2.17-0.336-0.924-0.952-1.54-0.602-0.616-1.442-0.924-0.826-0.308-1.792-0.308z"/>
    <path d="m38.779 16.388q0-0.434 0.084-0.854t0.28-0.742q0.21-0.322 0.546-0.518 0.336-0.21 0.84-0.21t0.84 0.21q0.35 0.196 0.546 0.518 0.21 0.322 0.294 0.742t0.084 0.854-0.084 0.854q-0.084 0.406-0.294 0.742-0.196 0.322-0.546 0.518-0.336 0.196-0.84 0.196t-0.84-0.196-0.546-0.518q-0.196-0.336-0.28-0.742-0.084-0.42-0.084-0.854zm-1.988 0q0 0.868 0.266 1.568t0.756 1.204q0.49 0.49 1.176 0.756t1.54 0.266 1.54-0.266q0.7-0.266 1.19-0.756 0.49-0.504 0.756-1.204t0.266-1.568-0.266-1.568q-0.266-0.714-0.756-1.204-0.49-0.504-1.19-0.77-0.686-0.28-1.54-0.28t-1.54 0.28q-0.686 0.266-1.176 0.77-0.49 0.49-0.756 1.204-0.266 0.7-0.266 1.568z"/>
    <path d="m45.569 12.762v7.238h1.988v-3.794q0-1.106 0.364-1.582 0.364-0.49 1.176-0.49 0.714 0 0.994 0.448 0.28 0.434 0.28 1.33v4.088h1.988v-4.452q0-0.672-0.126-1.218-0.112-0.56-0.406-0.938-0.294-0.392-0.812-0.602-0.504-0.224-1.302-0.224-0.63 0-1.232 0.294-0.602 0.28-0.98 0.91h-0.042v-1.008z"/>
    <path d="m53.787 14.988q0.042-0.7 0.35-1.162t0.784-0.742 1.064-0.392q0.602-0.126 1.204-0.126 0.546 0 1.106 0.084 0.56 0.07 1.022 0.294t0.756 0.63q0.294 0.392 0.294 1.05v3.766q0 0.49 0.056 0.938t0.196 0.672h-2.016q-0.056-0.168-0.098-0.336-0.028-0.182-0.042-0.364-0.476 0.49-1.12 0.686t-1.316 0.196q-0.518 0-0.966-0.126t-0.784-0.392-0.532-0.672q-0.182-0.406-0.182-0.966 0-0.616 0.21-1.008 0.224-0.406 0.56-0.644 0.35-0.238 0.784-0.35 0.448-0.126 0.896-0.196t0.882-0.112 0.77-0.126 0.532-0.238q0.196-0.168 0.182-0.476 0-0.322-0.112-0.504-0.098-0.196-0.28-0.294-0.168-0.112-0.406-0.14-0.224-0.042-0.49-0.042-0.588 0-0.924 0.252t-0.392 0.84zm4.592 1.47q-0.126 0.112-0.322 0.182-0.182 0.056-0.406 0.098-0.21 0.042-0.448 0.07t-0.476 0.07q-0.224 0.042-0.448 0.112-0.21 0.07-0.378 0.196-0.154 0.112-0.252 0.294t-0.098 0.462q0 0.266 0.098 0.448t0.266 0.294q0.168 0.098 0.392 0.14t0.462 0.042q0.588 0 0.91-0.196t0.476-0.462q0.154-0.28 0.182-0.56 0.042-0.28 0.042-0.448z"/>
    <path d="m64.427 12.762v-2.17h-1.988v2.17h-1.204v1.33h1.204v4.27q0 0.546 0.182 0.882t0.49 0.518q0.322 0.182 0.728 0.238 0.42 0.07 0.882 0.07 0.294 0 0.602-0.014t0.56-0.056v-1.54q-0.14 0.028-0.294 0.042t-0.322 0.014q-0.504 0-0.672-0.168t-0.168-0.672v-3.584h1.456v-1.33z"/>
    <path d="m71.707 15.604h-3.234q0.014-0.21 0.084-0.476 0.084-0.266 0.266-0.504 0.196-0.238 0.504-0.392 0.322-0.168 0.798-0.168 0.728 0 1.078 0.392 0.364 0.392 0.504 1.148zm-3.234 1.26h5.222q0.056-0.84-0.14-1.61t-0.644-1.372q-0.434-0.602-1.12-0.952-0.686-0.364-1.61-0.364-0.826 0-1.512 0.294-0.672 0.294-1.162 0.812-0.49 0.504-0.756 1.204t-0.266 1.512q0 0.84 0.252 1.54 0.266 0.7 0.742 1.204t1.162 0.784q0.686 0.266 1.54 0.266 1.232 0 2.1-0.56t1.288-1.862h-1.75q-0.098 0.336-0.532 0.644-0.434 0.294-1.036 0.294-0.84 0-1.288-0.434t-0.49-1.4z"/>
  </g>
</svg>
