<svg height="933.333" viewBox="0 0 700 700" width="933.333" xmlns="http://www.w3.org/2000/svg"><path d="M321.5 1.1C246.7 7.5 178 36.2 122 84.6 66.9 132.1 28.2 194.7 10.6 264.5c-3.4 13.7-7.2 34.6-8.8 49-1.7 15.5-1.7 57.5 0 73 6.3 57 25.5 110 56.7 157 27 40.5 64.4 77.1 104.7 102.4 45.7 28.7 94.4 45.6 150.3 52.3 13.9 1.6 59.5 1.6 73 0 84.7-10.3 155.5-44.6 213.1-103.4 20.4-20.8 34.6-38.9 49-62.3 26.9-43.9 42.9-91 49.6-146 1.6-13 1.6-60 0-73-7.3-59.6-24.6-107.9-55.7-155.5-13.9-21.3-23.9-33.6-44.9-54.8C531.9 36.4 442.2-.6 348 .1c-9.1.1-21 .6-26.5 1zM195 223v29h117v166h-42v-16h-75v104h-42V402H78v18H38V252h115v-58h42zm248.2 2.7l.3 30.8 18.8.3 18.7.2v36h-38v4.5c0 4.4.5 5.1 10.3 16.4 16.1 18.3 35.7 42 35.7 43.2 0 .6-4.6 9.4-10.1 19.6l-10.2 18.5-1.7-2.9c-.9-1.5-5.8-9.8-10.9-18.3S446 357.4 445 356c-1.9-2.5-2-1.7-2 73.7V506h-38l-.1-61.8c0-53.3-.2-61.3-1.4-58.7-.8 1.6-4.5 9.7-8.2 18-7.8 17.1-23.4 44.1-24.6 42.4-.1-.2-1.6-3.3-3.2-6.9-1.7-3.5-6-11.5-9.7-17.7l-6.6-11.2 1.9-2.5c5.7-7.3 20-33.7 27.9-51.6 7.9-18.1 21-56.3 21-61.6 0-1.2-3.6-1.4-21-1.4h-21v-36l22.3-.2 22.2-.3.3-30.8.2-30.7h38zm177.8 3.8V263h41v39h-41v77.7c0 46.6-.4 81.4-1 86.7-2.3 19.9-10.2 28.5-30.6 33.6-11.2 2.7-24.8 4-43.3 4h-16l-1.1-5.6c-1.4-6.8-5.7-19.5-9.8-29l-3-7.2 28.3.6c31.5.5 33.6.3 35.4-5 .8-2.1 1.1-28 1.1-79.4V302h-91v-39h91v-67h40zm-87 102.7c13.1 23.2 32.4 67.8 30.3 69.9-1.1 1-34.3 15.3-34.6 14.8-.1-.2-2.2-6.2-4.6-13.3-5.1-15.4-10.6-28.5-20.9-49.9-4.1-8.6-7.3-15.9-7.1-16.2.7-.7 30.3-12.3 31.6-12.4.7-.1 3.1 3.2 5.3 7.1z"/><path d="M78 327v36l37.3-.2 37.2-.3.3-35.8.2-35.7H78zm117 0v36h75v-72h-75z"/></svg>